<svg width="47" height="53" viewBox="0 0 47 53" fill="none" xmlns="http://www.w3.org/2000/svg">
<path d="M10.7127 29.655C10.7127 28.3245 11.7648 27.2459 13.0627 27.2459H13.0844C14.3823 27.2459 15.4344 28.3245 15.4344 29.655C15.4344 30.9855 14.3823 32.0641 13.0844 32.0641H13.0627C11.7648 32.0641 10.7127 30.9855 10.7127 29.655Z" fill="#7A7E88"/>
<path d="M21.1625 29.655C21.1625 28.3245 22.2146 27.2459 23.5125 27.2459H23.5342C24.8321 27.2459 25.8842 28.3245 25.8842 29.655C25.8842 30.9855 24.8321 32.0641 23.5342 32.0641H23.5125C22.2146 32.0641 21.1625 30.9855 21.1625 29.655Z" fill="#7A7E88"/>
<path d="M31.5905 29.655C31.5905 28.3245 32.6426 27.2459 33.9405 27.2459H33.9622C35.2601 27.2459 36.3122 28.3245 36.3122 29.655C36.3122 30.9855 35.2601 32.0641 33.9622 32.0641H33.9405C32.6426 32.0641 31.5905 30.9855 31.5905 29.655Z" fill="#7A7E88"/>
<path d="M10.7127 39.018C10.7127 37.6875 11.7648 36.6089 13.0627 36.6089H13.0844C14.3823 36.6089 15.4344 37.6875 15.4344 39.018C15.4344 40.3485 14.3823 41.4271 13.0844 41.4271H13.0627C11.7648 41.4271 10.7127 40.3485 10.7127 39.018Z" fill="#7A7E88"/>
<path d="M21.1625 39.018C21.1625 37.6875 22.2146 36.6089 23.5125 36.6089H23.5342C24.8321 36.6089 25.8842 37.6875 25.8842 39.018C25.8842 40.3485 24.8321 41.4271 23.5342 41.4271H23.5125C22.2146 41.4271 21.1625 40.3485 21.1625 39.018Z" fill="#7A7E88"/>
<path d="M31.5905 39.018C31.5905 37.6875 32.6426 36.6089 33.9405 36.6089H33.9622C35.2601 36.6089 36.3122 37.6875 36.3122 39.018C36.3122 40.3485 35.2601 41.4271 33.9622 41.4271H33.9405C32.6426 41.4271 31.5905 40.3485 31.5905 39.018Z" fill="#7A7E88"/>
<path fill-rule="evenodd" clip-rule="evenodd" d="M35.3509 2.4091C35.3509 1.07859 34.2988 0 33.0009 0C31.7031 0 30.6509 1.07859 30.6509 2.4091V3.80422H16.3674V2.4091C16.3674 1.07859 15.3152 0 14.0174 0C12.7195 0 11.6674 1.07859 11.6674 2.4091V3.89728C8.56797 4.21002 5.82629 5.31883 3.74882 7.34336C1.23891 9.7893 0 13.2779 0 17.3988V39.2004C0 43.3669 1.23171 46.9002 3.73239 49.3849C6.2214 51.858 9.67371 53 13.5617 53H33.4381C37.3248 53 40.7738 51.8823 43.263 49.4458C45.7687 46.9932 46.9999 43.4999 46.9999 39.3826V17.4032C47.0116 13.2854 45.7866 9.79466 43.2806 7.34569C41.2044 5.31675 38.4588 4.20807 35.3509 3.8965V2.4091ZM30.6509 8.62242V10.3369C30.6509 11.6674 31.7031 12.746 33.0009 12.746C34.2988 12.746 35.3509 11.6674 35.3509 10.3369V8.74504C37.4172 9.02767 38.9622 9.78215 40.0377 10.8332C41.4008 12.1653 42.3093 14.2662 42.2999 17.3914L42.2999 17.3988V17.8377H4.69999V17.3988C4.69999 14.2754 5.61635 12.1712 6.98701 10.8355C8.06655 9.78348 9.61119 9.0298 11.6674 8.74628V10.3369C11.6674 11.6674 12.7195 12.746 14.0174 12.746C15.3152 12.746 16.3674 11.6674 16.3674 10.3369V8.62242H30.6509ZM4.69999 22.6559V39.2004C4.69999 42.3921 5.62355 44.554 7.00343 45.9251C8.395 47.3077 10.5486 48.1818 13.5617 48.1818H33.4381C36.4744 48.1818 38.6313 47.3176 40.0173 45.961C41.3867 44.6206 42.2999 42.5097 42.2999 39.3826V22.6559H4.69999Z" fill="#7A7E88"/>
</svg>
