<svg width="27" height="21" viewBox="0 0 27 21" fill="none" xmlns="http://www.w3.org/2000/svg">
<path d="M26.0976 3.61851C25.5389 3.26657 24.8522 3.23544 24.2669 3.53324L22.2909 4.53087C21.5602 4.89906 21.1069 5.64356 21.1069 6.47198V14.25C21.1069 15.0784 21.5602 15.8216 22.2909 16.1925L24.2656 17.1887C24.5336 17.3268 24.8202 17.3931 25.1069 17.3931C25.4509 17.3931 25.7922 17.2957 26.0976 17.1048C26.6562 16.7542 26.9896 16.1464 26.9896 15.4804V5.24423C26.9896 4.57824 26.6562 3.97046 26.0976 3.61851Z" fill="#FB0000"/>
<path d="M13.5297 20.3619H5.80693C2.57756 20.3619 0.322876 18.1352 0.322876 14.9474V5.77649C0.322876 2.58732 2.57756 0.361938 5.80693 0.361938H13.5297C16.759 0.361938 19.0137 2.58732 19.0137 5.77649V14.9474C19.0137 18.1352 16.759 20.3619 13.5297 20.3619Z" fill="#FB0000"/>
</svg>
