<svg width="32" height="34" viewBox="0 0 32 34" fill="none" xmlns="http://www.w3.org/2000/svg">
<path d="M11.3334 27.0005H10.6667C5.33335 27.0005 2.66669 25.619 2.66669 18.7114V11.8039C2.66669 6.27785 5.33335 3.51483 10.6667 3.51483H21.3334C26.6667 3.51483 29.3334 6.27785 29.3334 11.8039V18.7114C29.3334 24.2374 26.6667 27.0005 21.3334 27.0005H20.6667C20.2534 27.0005 19.8534 27.2077 19.6 27.5531L17.6 30.3161C16.72 31.5318 15.28 31.5318 14.4 30.3161L12.4 27.5531C12.1867 27.2491 11.6934 27.0005 11.3334 27.0005Z" stroke="#FF9431" stroke-width="4" stroke-miterlimit="10" stroke-linecap="round" stroke-linejoin="round"/>
<path d="M21.3287 15.9483H21.3406" stroke="#FF9431" stroke-width="4" stroke-linecap="round" stroke-linejoin="round"/>
<path d="M15.994 15.9483H16.006" stroke="#FF9431" stroke-width="4" stroke-linecap="round" stroke-linejoin="round"/>
<path d="M10.6594 15.9483H10.6714" stroke="#FF9431" stroke-width="4" stroke-linecap="round" stroke-linejoin="round"/>
</svg>
