<svg width="24" height="28" viewBox="0 0 24 28" fill="none" xmlns="http://www.w3.org/2000/svg">
<path d="M22.0417 11.1012C21.3287 11.1012 20.75 11.6714 20.75 12.3767C20.75 17.1408 16.8248 21.0172 12.0006 21.0172C7.17511 21.0172 3.24987 17.1408 3.24987 12.3767C3.24987 11.6714 2.67122 11.1012 1.95825 11.1012C1.24527 11.1012 0.666626 11.6714 0.666626 12.3767C0.666626 18.1166 5.06589 22.8552 10.709 23.4917V26.0581C10.709 26.7622 11.2863 27.3336 12.0006 27.3336C12.7136 27.3336 13.2922 26.7622 13.2922 26.0581V23.4917C18.934 22.8552 23.3333 18.1166 23.3333 12.3767C23.3333 11.6714 22.7546 11.1012 22.0417 11.1012Z" fill="#FB0000"/>
<path d="M11.7663 18.2894H12.2339C15.4371 18.2894 18.0359 15.7243 18.0359 12.561V6.39632C18.0359 3.23045 15.4371 0.666626 12.2339 0.666626H11.7663C8.56312 0.666626 5.96438 3.23045 5.96438 6.39632V12.561C5.96438 15.7243 8.56312 18.2894 11.7663 18.2894Z" fill="#FB0000"/>
</svg>
