<svg width="241" height="169" viewBox="0 0 241 169" fill="none" xmlns="http://www.w3.org/2000/svg">
<path d="M187.489 63.375L240.932 7.04167V161.958L187.489 105.625V154.917C187.489 158.652 186.081 162.234 183.575 164.875C181.07 167.516 177.671 169 174.128 169H13.7983C10.2548 169 6.85642 167.516 4.35079 164.875C1.84515 162.234 0.4375 158.652 0.4375 154.917V14.0833C0.4375 10.3482 1.84515 6.76605 4.35079 4.12492C6.85642 1.48378 10.2548 0 13.7983 0H174.128C177.671 0 181.07 1.48378 183.575 4.12492C186.081 6.76605 187.489 10.3482 187.489 14.0833V63.375ZM147.406 140.833V126.75C147.406 108.019 111.733 98.5833 93.9631 98.5833C76.1932 98.5833 40.5199 108.019 40.5199 126.75V140.833H147.406ZM93.9631 28.1667C86.8761 28.1667 80.0793 31.1342 75.068 36.4165C70.0568 41.6988 67.2415 48.8631 67.2415 56.3333C67.2415 63.8036 70.0568 70.9679 75.068 76.2502C80.0793 81.5324 86.8761 84.5 93.9631 84.5C101.05 84.5 107.847 81.5324 112.858 76.2502C117.869 70.9679 120.685 63.8036 120.685 56.3333C120.685 48.8631 117.869 41.6988 112.858 36.4165C107.847 31.1342 101.05 28.1667 93.9631 28.1667Z" fill="black" fill-opacity="0.3"/>
</svg>
