<svg width="35" height="37" viewBox="0 0 35 37" fill="none" xmlns="http://www.w3.org/2000/svg">
<path fill-rule="evenodd" clip-rule="evenodd" d="M20.7642 0.289981C21.0501 0.549688 21.0916 0.979172 21.1745 1.83814L21.3617 3.77779C21.5229 5.44827 21.6035 6.28351 22.1645 6.5113C22.7255 6.73908 23.3656 6.19647 24.6457 5.11124L25.9692 3.9893C26.647 3.41466 26.9859 3.12734 27.3809 3.1471C27.7759 3.16685 28.0844 3.48656 28.7015 4.12598L31.1359 6.64824C31.714 7.24731 32.0031 7.54685 32.0217 7.92166C32.0404 8.29648 31.7824 8.62319 31.2664 9.2766L29.9634 10.9267C28.9679 12.1874 28.4701 12.8178 28.7001 13.3625C28.9302 13.9072 29.7291 13.99 31.3269 14.1555L33.2061 14.3502C34.0589 14.4386 34.4853 14.4828 34.7427 14.7682C35 15.0536 35 15.4822 35 16.3396V19.9855C35 20.8429 35 21.2716 34.7427 21.557C34.4853 21.8423 34.0589 21.8865 33.2061 21.9749L31.3276 22.1695C29.7297 22.3351 28.9308 22.4179 28.7008 22.9626C28.4708 23.5073 28.9685 24.1376 29.964 25.3983L29.964 25.3983L31.2665 27.0477C31.7824 27.7011 32.0404 28.0278 32.0218 28.4027C32.0032 28.7775 31.7141 29.077 31.1359 29.6761L28.7016 32.1983C28.0845 32.8377 27.7759 33.1575 27.381 33.1772C26.986 33.197 26.6471 32.9096 25.9692 32.335L24.6458 31.2131L24.6458 31.2131C23.3657 30.1278 22.7256 29.5852 22.1646 29.813C21.6036 30.0408 21.523 30.876 21.3618 32.5465L21.1745 34.487C21.0916 35.3459 21.0501 35.7754 20.7642 36.0351C20.4782 36.2948 20.0467 36.2948 19.1837 36.2948H15.8163C14.9533 36.2948 14.5218 36.2948 14.2358 36.0351C13.9499 35.7754 13.9084 35.3459 13.8255 34.487L13.6383 32.5472C13.4771 30.8768 13.3965 30.0415 12.8355 29.8137C12.2745 29.5859 11.6344 30.1286 10.3543 31.2138L9.03069 32.3358C8.35284 32.9105 8.01392 33.1978 7.61896 33.178C7.224 33.1583 6.91544 32.8386 6.29831 32.1992L3.86401 29.6769C3.28583 29.0778 2.99674 28.7783 2.97812 28.4035C2.9595 28.0287 3.21749 27.702 3.73346 27.0485L5.0365 25.3984C6.03202 24.1377 6.52978 23.5073 6.29975 22.9626C6.06972 22.4179 5.27081 22.3351 3.67299 22.1696L1.79388 21.9749C0.941091 21.8865 0.514698 21.8423 0.257349 21.557C0 21.2716 0 20.8429 0 19.9855V16.3396C0 15.4822 0 15.0536 0.257349 14.7682C0.514698 14.4828 0.941091 14.4386 1.79388 14.3502L3.67364 14.1555C5.27147 13.9899 6.07038 13.9071 6.3004 13.3624C6.53043 12.8177 6.03267 12.1874 5.03715 10.9267L3.73354 9.27578C3.21757 8.62236 2.95958 8.29566 2.9782 7.92084C2.99682 7.54602 3.28591 7.24649 3.86409 6.64742L6.29839 4.12516C6.91551 3.48574 7.22408 3.16603 7.61904 3.14627C8.014 3.12652 8.35292 3.41384 9.03077 3.98848L10.3543 5.11053L10.3543 5.11053C11.6345 6.19576 12.2745 6.73837 12.8355 6.51059C13.3966 6.2828 13.4772 5.44756 13.6384 3.77709L13.8255 1.83814C13.9084 0.979173 13.9499 0.549688 14.2358 0.289981C14.5218 0.0302734 14.9533 0.0302734 15.8163 0.0302734H19.1837C20.0467 0.0302734 20.4782 0.0302734 20.7642 0.289981ZM17.5 25.4155C21.366 25.4155 24.5 22.1682 24.5 18.1626C24.5 14.1569 21.366 10.9096 17.5 10.9096C13.634 10.9096 10.5 14.1569 10.5 18.1626C10.5 22.1682 13.634 25.4155 17.5 25.4155Z" fill="#FF9431"/>
</svg>
