<svg width="25" height="26" viewBox="0 0 25 26" fill="none" xmlns="http://www.w3.org/2000/svg">
<path fill-rule="evenodd" clip-rule="evenodd" d="M22.912 5.72437L23.7419 7.16449V7.1767C24.4349 8.391 24.0212 9.93686 22.8143 10.6428C22.4282 10.8639 22.108 11.1841 21.8868 11.5703C21.5467 12.1541 21.4533 12.8494 21.6274 13.5023C21.8015 14.1551 22.2287 14.7116 22.8143 15.0486C23.4 15.3855 23.8272 15.942 24.0013 16.5948C24.1754 17.2477 24.082 17.943 23.7419 18.5268L22.8632 19.9913C22.1569 21.2055 20.6019 21.6201 19.3849 20.9189C19.0125 20.706 18.5932 20.5886 18.1645 20.5772C17.487 20.5739 16.8363 20.8416 16.3572 21.3206C15.8782 21.7997 15.6105 22.4504 15.6137 23.1279C15.607 24.5318 14.467 25.6664 13.063 25.6664H11.391C9.98228 25.6664 8.84028 24.5244 8.84028 23.1157C8.83582 22.6859 8.71794 22.2649 8.49856 21.8952C8.16399 21.3104 7.60966 20.8834 6.95879 20.7093C6.30793 20.5351 5.61445 20.6281 5.0325 20.9677C4.44053 21.2995 3.74072 21.3818 3.08793 21.1963C2.43515 21.0107 1.8832 20.5727 1.55424 19.9791L0.712136 18.5268C0.0119774 17.3134 0.427083 15.7623 1.63967 15.0608C2.42888 14.6051 2.91505 13.763 2.91505 12.8518C2.91505 11.9405 2.42888 11.0984 1.63967 10.6428C0.425541 9.93648 0.010888 8.38153 0.712136 7.16449L1.60306 5.69996C2.30516 4.4814 3.86109 4.06103 5.08132 4.76022C5.45095 4.9796 5.87196 5.09748 6.30176 5.10195C7.69631 5.10209 8.83247 3.98224 8.85249 2.58783C8.84924 1.91247 9.11526 1.26364 9.59167 0.784935C10.0681 0.306227 10.7156 0.0371096 11.391 0.0371096H13.063C13.7524 0.0368259 14.4125 0.315591 14.893 0.809901C15.3736 1.30421 15.6335 1.97197 15.6137 2.66106C15.6182 3.09087 15.7361 3.51187 15.9555 3.8815C16.2965 4.46303 16.8548 4.88504 17.5073 5.05446C18.1598 5.22388 18.8529 5.1268 19.4337 4.78463C20.654 4.08543 22.2099 4.50581 22.912 5.72437ZM16 13C16 15.2091 14.2091 17 12 17C9.79086 17 8 15.2091 8 13C8 10.7909 9.79086 9 12 9C14.2091 9 16 10.7909 16 13Z" fill="#8A8A8A"/>
</svg>
