<svg width="240" height="252" viewBox="0 0 240 252" fill="none" xmlns="http://www.w3.org/2000/svg">
<path d="M59.4551 32.4631C62.3914 19.7244 79.6132 19.7244 82.5495 32.4631L90.6288 67.5146C91.6772 72.0627 95.0527 75.6137 99.376 76.7166L132.695 85.216C144.804 88.305 144.804 106.422 132.695 109.511L99.376 118.011C95.0527 119.114 91.6772 122.665 90.6288 127.213L82.5495 162.264C79.6132 175.003 62.3914 175.003 59.4551 162.264L51.3758 127.213C50.3275 122.665 46.9519 119.114 42.6287 118.011L9.30982 109.511C-2.79923 106.422 -2.79924 88.305 9.30981 85.216L42.6287 76.7166C46.9519 75.6137 50.3275 72.0627 51.3758 67.5146L59.4551 32.4631Z" fill="black" fill-opacity="0.3"/>
<path d="M156.447 154.789C158.254 146.949 168.852 146.949 170.659 154.789L175.631 176.359C176.276 179.157 178.354 181.343 181.014 182.021L201.518 187.252C208.97 189.153 208.97 200.302 201.518 202.203L181.014 207.433C178.354 208.112 176.276 210.297 175.631 213.096L170.659 234.666C168.852 242.505 158.254 242.505 156.447 234.666L151.475 213.096C150.83 210.297 148.753 208.112 146.093 207.433L125.589 202.203C118.137 200.302 118.137 189.153 125.589 187.252L146.093 182.021C148.753 181.343 150.83 179.157 151.475 176.359L156.447 154.789Z" fill="black" fill-opacity="0.3"/>
<path d="M191.555 31.0629C192.741 25.9184 199.696 25.9184 200.882 31.0629L204.144 45.2183C204.568 47.055 205.931 48.4891 207.677 48.9345L221.133 52.367C226.023 53.6144 226.023 60.931 221.133 62.1785L207.677 65.611C205.931 66.0564 204.568 67.4904 204.144 69.3272L200.882 83.4825C199.696 88.627 192.741 88.627 191.555 83.4826L188.292 69.3272C187.869 67.4904 186.506 66.0564 184.76 65.611L171.304 62.1785C166.414 60.931 166.414 53.6144 171.304 52.367L184.76 48.9345C186.506 48.4891 187.869 47.055 188.292 45.2183L191.555 31.0629Z" fill="black" fill-opacity="0.3"/>
<path fill-rule="evenodd" clip-rule="evenodd" d="M196.218 33.5743L193.555 45.1276C192.491 49.7457 189.063 53.3514 184.674 54.4712L173.691 57.2727L184.674 60.0742C189.063 61.1941 192.491 64.7997 193.555 69.4178L196.218 80.9711L198.881 69.4178C199.946 64.7997 203.373 61.1941 207.763 60.0742L218.745 57.2727L207.763 54.4712C203.373 53.3514 199.946 49.7457 198.881 45.1276L196.218 33.5743ZM201.548 27.3186C200.193 21.4392 192.244 21.4392 190.889 27.3187L187.16 43.4962C186.676 45.5954 185.118 47.2343 183.123 47.7433L167.745 51.6661C162.156 53.0918 162.156 61.4537 167.745 62.8793L183.123 66.8022C185.118 67.3112 186.676 68.9501 187.16 71.0492L190.889 87.2268C192.244 93.1062 200.193 93.1062 201.548 87.2268L205.277 71.0492C205.761 68.9501 207.319 67.3112 209.314 66.8022L224.692 62.8793C230.281 61.4537 230.281 53.0918 224.692 51.6661L209.314 47.7433C207.319 47.2343 205.761 45.5954 205.277 43.4962L201.548 27.3186Z" fill="black" fill-opacity="0.3"/>
<path d="M65.5581 252C59.5447 252 54.6698 246.872 54.6698 240.545C54.6698 234.219 59.5447 229.091 65.5581 229.091C71.5716 229.091 76.4465 234.219 76.4465 240.545C76.4465 246.872 71.5716 252 65.5581 252Z" fill="black" fill-opacity="0.3"/>
<path d="M11.1164 206.182C5.10291 206.182 0.228027 201.053 0.228027 194.727C0.228028 188.401 5.10291 183.273 11.1164 183.273C17.1298 183.273 22.0047 188.401 22.0047 194.727C22.0047 201.053 17.1298 206.182 11.1164 206.182Z" fill="black" fill-opacity="0.3"/>
<path d="M130.888 22.9091C124.875 22.9091 120 17.7807 120 11.4545C120 5.12837 124.875 -2.76526e-07 130.888 0C136.902 2.76526e-07 141.777 5.12838 141.777 11.4545C141.777 17.7807 136.902 22.9091 130.888 22.9091Z" fill="black" fill-opacity="0.3"/>
<path d="M228.883 148.909C222.87 148.909 217.995 143.781 217.995 137.455C217.995 131.128 222.87 126 228.883 126C234.897 126 239.772 131.128 239.772 137.455C239.772 143.781 234.897 148.909 228.883 148.909Z" fill="black" fill-opacity="0.3"/>
</svg>
