<svg width="32" height="34" viewBox="0 0 32 34" fill="none" xmlns="http://www.w3.org/2000/svg">
<path d="M28.4414 11.0603C27.8827 10.6957 27.196 10.6634 26.6107 10.972L24.6347 12.0057C23.904 12.3871 23.4507 13.1585 23.4507 14.0169V22.0759C23.4507 22.9343 23.904 23.7043 24.6347 24.0886L26.6094 25.1209C26.8774 25.2639 27.164 25.3326 27.4507 25.3326C27.7947 25.3326 28.1361 25.2317 28.4414 25.0339C29.0001 24.6706 29.3334 24.0409 29.3334 23.3508V12.7448C29.3334 12.0547 29.0001 11.425 28.4414 11.0603Z" fill="#FF9431"/>
<path d="M15.8735 28.4087H8.15074C4.92138 28.4087 2.66669 26.1015 2.66669 22.7985V13.2963C2.66669 9.99188 4.92138 7.6861 8.15074 7.6861H15.8735C19.1029 7.6861 21.3575 9.99188 21.3575 13.2963V22.7985C21.3575 26.1015 19.1029 28.4087 15.8735 28.4087Z" fill="#FF9431"/>
</svg>
