<svg width="32" height="34" viewBox="0 0 32 34" fill="none" xmlns="http://www.w3.org/2000/svg">
<path d="M26.0417 14.1014C25.3288 14.1014 24.7501 14.6921 24.7501 15.423C24.7501 20.3592 20.8249 24.3756 16.0007 24.3756C11.1752 24.3756 7.24993 20.3592 7.24993 15.423C7.24993 14.6921 6.67128 14.1014 5.95831 14.1014C5.24533 14.1014 4.66669 14.6921 4.66669 15.423C4.66669 21.3703 9.06595 26.2801 14.709 26.9396V29.5987C14.709 30.3282 15.2864 30.9203 16.0007 30.9203C16.7136 30.9203 17.2923 30.3282 17.2923 29.5987V26.9396C22.9341 26.2801 27.3334 21.3703 27.3334 15.423C27.3334 14.6921 26.7547 14.1014 26.0417 14.1014Z" fill="#FF9431"/>
<path d="M15.7664 21.5493H16.234C19.4372 21.5493 22.0359 18.8915 22.0359 15.6139V9.2265C22.0359 5.94625 19.4372 3.28979 16.234 3.28979H15.7664C12.5632 3.28979 9.96444 5.94625 9.96444 9.2265V15.6139C9.96444 18.8915 12.5632 21.5493 15.7664 21.5493Z" fill="#FF9431"/>
</svg>
